<svg width="554" height="218" viewBox="0 0 554 218" fill="none" xmlns="http://www.w3.org/2000/svg">
<path d="M28.0062 80.8257C28.098 90.0232 28.0386 99.2261 28.0386 108.424C28.0386 108.425 28.0369 108.426 28.0359 108.425C28.0349 108.424 28.0332 108.424 28.0332 108.426C28.0386 117.537 28.1034 126.648 28.0008 135.753C27.963 139.186 29.2369 141.59 32.1949 143.295C47.9403 152.359 63.6749 161.433 79.334 170.61C82.6968 172.575 85.671 172.418 88.9259 170.453C94.6961 166.966 100.585 163.669 106.426 160.296C116.077 154.719 125.712 149.115 135.385 143.571C138.148 141.99 140.011 139.944 140 136.544C139.973 128.514 140 120.49 140 112.461C140 109.684 138.721 107.637 136.4 106.218C135.099 105.423 133.755 104.681 132.432 103.917C128.041 101.382 123.63 98.8699 119.246 96.3161C117.721 95.4278 115.838 95.412 114.303 96.2827C112.751 97.1627 111.795 98.8112 111.797 100.595C111.805 107.656 111.763 114.717 111.834 121.774C111.856 123.723 111.203 124.946 109.508 125.905C101.767 130.29 94.0484 134.719 86.3889 139.24C84.6022 140.29 83.2366 140.214 81.4607 139.159C73.893 134.654 66.2605 130.263 58.5902 125.937C56.7981 124.925 56.064 123.706 56.1288 121.627C56.2691 117.216 56.172 112.799 56.172 108.381C56.172 108.38 56.1732 108.379 56.1747 108.379C56.1762 108.379 56.1774 108.378 56.1774 108.376C56.1828 103.959 56.2691 99.5418 56.145 95.1301C56.091 93.1864 56.6848 91.9573 58.4067 90.9882C64.1518 87.7465 69.8512 84.4201 75.5644 81.123C78.2477 79.5745 80.4687 77.3354 81.9835 74.6329C83.4242 72.0625 84.1756 69.1636 84.1726 66.217C84.1667 60.5071 84.1767 54.7946 84.1596 49.082C84.1488 45.4274 82.3783 44.4637 79.172 46.3208C72.9538 49.9266 66.7409 53.5379 60.5118 57.1222L50.8551 62.7584C44.6207 66.3426 38.4132 69.9864 32.1625 73.5435C29.3017 75.1732 27.9738 77.4851 28.0062 80.8257Z" fill="url(#paint0_linear_556_260)"/>
<rect x="92.5215" y="88.8262" width="43.8261" height="43.8261" rx="21.913" transform="rotate(-90 92.5215 88.8262)" fill="url(#paint1_linear_556_260)"/>
<path d="M506.53 90.0156V125.525H524.021V130.501H501.29V90.0156H506.53Z" fill="white"/>
<path d="M506.53 90.0156V125.525H524.021V130.501H501.29V90.0156H506.53Z" stroke="white"/>
<path d="M506.53 90.0156V125.525H524.021V130.501H501.29V90.0156H506.53Z" stroke="black" stroke-opacity="0.2"/>
<path d="M473.862 89.3789C476.678 89.3789 479.306 89.9021 481.737 90.9531C484.202 91.968 486.362 93.4196 488.212 95.3057H488.211C490.06 97.1558 491.509 99.3484 492.557 101.878C493.609 104.418 494.132 107.204 494.132 110.23C494.132 113.257 493.609 116.061 492.558 118.635L492.557 118.638C491.509 121.167 490.06 123.377 488.212 125.262L488.208 125.266C486.36 127.114 484.204 128.563 481.744 129.612L481.74 129.613C479.307 130.63 476.679 131.136 473.862 131.136C471.045 131.136 468.401 130.63 465.935 129.614L465.926 129.611V129.61C463.502 128.561 461.365 127.112 459.518 125.266L459.514 125.262C457.665 123.377 456.217 121.167 455.169 118.638L455.168 118.635C454.117 116.061 453.594 113.257 453.594 110.23C453.594 107.204 454.117 104.418 455.169 101.878C456.217 99.3125 457.666 97.1005 459.518 95.249C461.365 93.3661 463.504 91.9158 465.932 90.9014L465.935 90.9004C468.401 89.8848 471.045 89.379 473.862 89.3789ZM473.862 94.3535C471.629 94.3536 469.597 94.7662 467.759 95.583L467.758 95.582C465.949 96.4018 464.381 97.5451 463.05 99.0127C461.716 100.484 460.67 102.177 459.914 104.099C459.194 106.018 458.834 108.061 458.834 110.23C458.834 112.433 459.194 114.492 459.912 116.408L460.058 116.767C460.8 118.544 461.798 120.121 463.05 121.502C464.38 122.969 465.966 124.111 467.812 124.932C469.65 125.749 471.665 126.161 473.862 126.161C476.096 126.161 478.11 125.749 479.91 124.934L479.914 124.932C481.759 124.111 483.345 122.969 484.676 121.502C486.01 120.031 487.037 118.336 487.758 116.415L487.761 116.408C488.514 114.491 488.892 112.433 488.892 110.23C488.892 108.064 488.514 106.024 487.761 104.106L487.758 104.1C487.037 102.178 486.01 100.484 484.676 99.0127C483.345 97.5459 481.759 96.4033 479.914 95.583L479.91 95.5811C478.11 94.7658 476.096 94.3535 473.862 94.3535Z" fill="white"/>
<path d="M473.862 89.3789C476.678 89.3789 479.306 89.9021 481.737 90.9531C484.202 91.968 486.362 93.4196 488.212 95.3057H488.211C490.06 97.1558 491.509 99.3484 492.557 101.878C493.609 104.418 494.132 107.204 494.132 110.23C494.132 113.257 493.609 116.061 492.558 118.635L492.557 118.638C491.509 121.167 490.06 123.377 488.212 125.262L488.208 125.266C486.36 127.114 484.204 128.563 481.744 129.612L481.74 129.613C479.307 130.63 476.679 131.136 473.862 131.136C471.045 131.136 468.401 130.63 465.935 129.614L465.926 129.611V129.61C463.502 128.561 461.365 127.112 459.518 125.266L459.514 125.262C457.665 123.377 456.217 121.167 455.169 118.638L455.168 118.635C454.117 116.061 453.594 113.257 453.594 110.23C453.594 107.204 454.117 104.418 455.169 101.878C456.217 99.3125 457.666 97.1005 459.518 95.249C461.365 93.3661 463.504 91.9158 465.932 90.9014L465.935 90.9004C468.401 89.8848 471.045 89.379 473.862 89.3789ZM473.862 94.3535C471.629 94.3536 469.597 94.7662 467.759 95.583L467.758 95.582C465.949 96.4018 464.381 97.5451 463.05 99.0127C461.716 100.484 460.67 102.177 459.914 104.099C459.194 106.018 458.834 108.061 458.834 110.23C458.834 112.433 459.194 114.492 459.912 116.408L460.058 116.767C460.8 118.544 461.798 120.121 463.05 121.502C464.38 122.969 465.966 124.111 467.812 124.932C469.65 125.749 471.665 126.161 473.862 126.161C476.096 126.161 478.11 125.749 479.91 124.934L479.914 124.932C481.759 124.111 483.345 122.969 484.676 121.502C486.01 120.031 487.037 118.336 487.758 116.415L487.761 116.408C488.514 114.491 488.892 112.433 488.892 110.23C488.892 108.064 488.514 106.024 487.761 104.106L487.758 104.1C487.037 102.178 486.01 100.484 484.676 99.0127C483.345 97.5459 481.759 96.4033 479.914 95.583L479.91 95.5811C478.11 94.7658 476.096 94.3535 473.862 94.3535Z" stroke="white"/>
<path d="M473.862 89.3789C476.678 89.3789 479.306 89.9021 481.737 90.9531C484.202 91.968 486.362 93.4196 488.212 95.3057H488.211C490.06 97.1558 491.509 99.3484 492.557 101.878C493.609 104.418 494.132 107.204 494.132 110.23C494.132 113.257 493.609 116.061 492.558 118.635L492.557 118.638C491.509 121.167 490.06 123.377 488.212 125.262L488.208 125.266C486.36 127.114 484.204 128.563 481.744 129.612L481.74 129.613C479.307 130.63 476.679 131.136 473.862 131.136C471.045 131.136 468.401 130.63 465.935 129.614L465.926 129.611V129.61C463.502 128.561 461.365 127.112 459.518 125.266L459.514 125.262C457.665 123.377 456.217 121.167 455.169 118.638L455.168 118.635C454.117 116.061 453.594 113.257 453.594 110.23C453.594 107.204 454.117 104.418 455.169 101.878C456.217 99.3125 457.666 97.1005 459.518 95.249C461.365 93.3661 463.504 91.9158 465.932 90.9014L465.935 90.9004C468.401 89.8848 471.045 89.379 473.862 89.3789ZM473.862 94.3535C471.629 94.3536 469.597 94.7662 467.759 95.583L467.758 95.582C465.949 96.4018 464.381 97.5451 463.05 99.0127C461.716 100.484 460.67 102.177 459.914 104.099C459.194 106.018 458.834 108.061 458.834 110.23C458.834 112.433 459.194 114.492 459.912 116.408L460.058 116.767C460.8 118.544 461.798 120.121 463.05 121.502C464.38 122.969 465.966 124.111 467.812 124.932C469.65 125.749 471.665 126.161 473.862 126.161C476.096 126.161 478.11 125.749 479.91 124.934L479.914 124.932C481.759 124.111 483.345 122.969 484.676 121.502C486.01 120.031 487.037 118.336 487.758 116.415L487.761 116.408C488.514 114.491 488.892 112.433 488.892 110.23C488.892 108.064 488.514 106.024 487.761 104.106L487.758 104.1C487.037 102.178 486.01 100.484 484.676 99.0127C483.345 97.5459 481.759 96.4033 479.914 95.583L479.91 95.5811C478.11 94.7658 476.096 94.3535 473.862 94.3535Z" stroke="black" stroke-opacity="0.2"/>
<path d="M432.709 89.3789C435.135 89.3789 437.326 89.8314 439.271 90.7471H439.272C441.237 91.6203 442.902 92.7896 444.259 94.2568C445.612 95.7199 446.588 97.3536 447.177 99.1572L447.322 99.6035L446.887 99.7773L443.177 101.261L442.697 101.453L442.521 100.968C441.704 98.7207 440.439 97.0469 438.738 95.9131L438.735 95.9102C437.062 94.7721 435.077 94.1953 432.762 94.1953C431.301 94.1954 430.031 94.45 428.941 94.9453L428.94 94.9443C427.892 95.4368 427.086 96.1356 426.505 97.0391C425.928 97.9367 425.63 99.006 425.63 100.267C425.63 101.775 426.102 103.132 427.057 104.353L427.239 104.568C428.185 105.635 429.599 106.47 431.527 107.049H431.526L437.78 108.903H437.779C440.944 109.838 443.385 111.201 445.056 113.02C446.74 114.854 447.572 117.152 447.572 119.877C447.572 122.088 446.999 124.06 445.844 125.774C444.727 127.448 443.152 128.758 441.138 129.71L441.137 129.709C439.151 130.665 436.867 131.136 434.299 131.136C431.725 131.136 429.373 130.646 427.251 129.658C425.144 128.677 423.356 127.365 421.895 125.721L421.891 125.717C420.434 124.042 419.392 122.197 418.77 120.184L418.63 119.733L419.071 119.567L422.888 118.137L423.369 117.956L423.536 118.443C424.427 121.047 425.802 123.002 427.646 124.345L427.996 124.583C429.771 125.736 431.866 126.32 434.299 126.32C435.944 126.32 437.36 126.063 438.559 125.563C439.794 125.028 440.721 124.304 441.365 123.402C442.007 122.504 442.332 121.459 442.332 120.248C442.332 118.396 441.829 117.037 440.889 116.097C439.907 115.115 438.473 114.336 436.547 113.786L436.541 113.784L429.442 111.665L428.911 111.502C426.292 110.651 424.22 109.293 422.725 107.415L422.722 107.411C421.169 105.415 420.39 103.133 420.39 100.585C420.39 98.4144 420.925 96.4807 422.007 94.8018C423.08 93.1008 424.543 91.7707 426.384 90.8135L426.387 90.8115C428.267 89.853 430.378 89.3789 432.709 89.3789Z" fill="white"/>
<path d="M432.709 89.3789C435.135 89.3789 437.326 89.8314 439.271 90.7471H439.272C441.237 91.6203 442.902 92.7896 444.259 94.2568C445.612 95.7199 446.588 97.3536 447.177 99.1572L447.322 99.6035L446.887 99.7773L443.177 101.261L442.697 101.453L442.521 100.968C441.704 98.7207 440.439 97.0469 438.738 95.9131L438.735 95.9102C437.062 94.7721 435.077 94.1953 432.762 94.1953C431.301 94.1954 430.031 94.45 428.941 94.9453L428.94 94.9443C427.892 95.4368 427.086 96.1356 426.505 97.0391C425.928 97.9367 425.63 99.006 425.63 100.267C425.63 101.775 426.102 103.132 427.057 104.353L427.239 104.568C428.185 105.635 429.599 106.47 431.527 107.049H431.526L437.78 108.903H437.779C440.944 109.838 443.385 111.201 445.056 113.02C446.74 114.854 447.572 117.152 447.572 119.877C447.572 122.088 446.999 124.06 445.844 125.774C444.727 127.448 443.152 128.758 441.138 129.71L441.137 129.709C439.151 130.665 436.867 131.136 434.299 131.136C431.725 131.136 429.373 130.646 427.251 129.658C425.144 128.677 423.356 127.365 421.895 125.721L421.891 125.717C420.434 124.042 419.392 122.197 418.77 120.184L418.63 119.733L419.071 119.567L422.888 118.137L423.369 117.956L423.536 118.443C424.427 121.047 425.802 123.002 427.646 124.345L427.996 124.583C429.771 125.736 431.866 126.32 434.299 126.32C435.944 126.32 437.36 126.063 438.559 125.563C439.794 125.028 440.721 124.304 441.365 123.402C442.007 122.504 442.332 121.459 442.332 120.248C442.332 118.396 441.829 117.037 440.889 116.097C439.907 115.115 438.473 114.336 436.547 113.786L436.541 113.784L429.442 111.665L428.911 111.502C426.292 110.651 424.22 109.293 422.725 107.415L422.722 107.411C421.169 105.415 420.39 103.133 420.39 100.585C420.39 98.4144 420.925 96.4807 422.007 94.8018C423.08 93.1008 424.543 91.7707 426.384 90.8135L426.387 90.8115C428.267 89.853 430.378 89.3789 432.709 89.3789Z" stroke="white"/>
<path d="M432.709 89.3789C435.135 89.3789 437.326 89.8314 439.271 90.7471H439.272C441.237 91.6203 442.902 92.7896 444.259 94.2568C445.612 95.7199 446.588 97.3536 447.177 99.1572L447.322 99.6035L446.887 99.7773L443.177 101.261L442.697 101.453L442.521 100.968C441.704 98.7207 440.439 97.0469 438.738 95.9131L438.735 95.9102C437.062 94.7721 435.077 94.1953 432.762 94.1953C431.301 94.1954 430.031 94.45 428.941 94.9453L428.94 94.9443C427.892 95.4368 427.086 96.1356 426.505 97.0391C425.928 97.9367 425.63 99.006 425.63 100.267C425.63 101.775 426.102 103.132 427.057 104.353L427.239 104.568C428.185 105.635 429.599 106.47 431.527 107.049H431.526L437.78 108.903H437.779C440.944 109.838 443.385 111.201 445.056 113.02C446.74 114.854 447.572 117.152 447.572 119.877C447.572 122.088 446.999 124.06 445.844 125.774C444.727 127.448 443.152 128.758 441.138 129.71L441.137 129.709C439.151 130.665 436.867 131.136 434.299 131.136C431.725 131.136 429.373 130.646 427.251 129.658C425.144 128.677 423.356 127.365 421.895 125.721L421.891 125.717C420.434 124.042 419.392 122.197 418.77 120.184L418.63 119.733L419.071 119.567L422.888 118.137L423.369 117.956L423.536 118.443C424.427 121.047 425.802 123.002 427.646 124.345L427.996 124.583C429.771 125.736 431.866 126.32 434.299 126.32C435.944 126.32 437.36 126.063 438.559 125.563C439.794 125.028 440.721 124.304 441.365 123.402C442.007 122.504 442.332 121.459 442.332 120.248C442.332 118.396 441.829 117.037 440.889 116.097C439.907 115.115 438.473 114.336 436.547 113.786L436.541 113.784L429.442 111.665L428.911 111.502C426.292 110.651 424.22 109.293 422.725 107.415L422.722 107.411C421.169 105.415 420.39 103.133 420.39 100.585C420.39 98.4144 420.925 96.4807 422.007 94.8018C423.08 93.1008 424.543 91.7707 426.384 90.8135L426.387 90.8115C428.267 89.853 430.378 89.3789 432.709 89.3789Z" stroke="black" stroke-opacity="0.2"/>
<path d="M379.159 90.0156L379.272 90.3584L388.841 119.299L398.41 90.3584L398.523 90.0156H407.433L407.201 90.6797L393.475 130.165L393.357 130.501H384.379L384.262 130.165L370.482 90.6807L370.25 90.0156H379.159Z" fill="white"/>
<path d="M379.159 90.0156L379.272 90.3584L388.841 119.299L398.41 90.3584L398.523 90.0156H407.433L407.201 90.6797L393.475 130.165L393.357 130.501H384.379L384.262 130.165L370.482 90.6807L370.25 90.0156H379.159Z" stroke="white"/>
<path d="M379.159 90.0156L379.272 90.3584L388.841 119.299L398.41 90.3584L398.523 90.0156H407.433L407.201 90.6797L393.475 130.165L393.357 130.501H384.379L384.262 130.165L370.482 90.6807L370.25 90.0156H379.159Z" stroke="black" stroke-opacity="0.2"/>
<path d="M367.093 90.0156V130.501H358.885V90.0156H367.093Z" fill="white"/>
<path d="M367.093 90.0156V130.501H358.885V90.0156H367.093Z" stroke="white"/>
<path d="M367.093 90.0156V130.501H358.885V90.0156H367.093Z" stroke="black" stroke-opacity="0.2"/>
<path d="M333.031 90.0156C337.266 90.0156 340.972 90.8769 344.131 92.6182H344.132C347.32 94.3212 349.792 96.701 351.536 99.752H351.537C353.283 102.771 354.148 106.27 354.148 110.231C354.148 114.159 353.283 117.673 351.54 120.76L351.538 120.762C349.794 123.813 347.323 126.21 344.136 127.948L344.134 127.949C340.974 129.656 337.268 130.501 333.031 130.501H319.652V90.0156H333.031ZM327.86 123.141H333.19C335.807 123.141 338.033 122.608 339.888 121.562C341.786 120.477 343.256 118.989 344.307 117.092C345.354 115.164 345.888 112.883 345.888 110.231C345.888 107.542 345.353 105.262 344.307 103.372C343.257 101.476 341.788 100.006 339.892 98.9561L339.888 98.9541C338.033 97.9089 335.807 97.376 333.19 97.376H327.86V123.141Z" fill="white"/>
<path d="M333.031 90.0156C337.266 90.0156 340.972 90.8769 344.131 92.6182H344.132C347.32 94.3212 349.792 96.701 351.536 99.752H351.537C353.283 102.771 354.148 106.27 354.148 110.231C354.148 114.159 353.283 117.673 351.54 120.76L351.538 120.762C349.794 123.813 347.323 126.21 344.136 127.948L344.134 127.949C340.974 129.656 337.268 130.501 333.031 130.501H319.652V90.0156H333.031ZM327.86 123.141H333.19C335.807 123.141 338.033 122.608 339.888 121.562C341.786 120.477 343.256 118.989 344.307 117.092C345.354 115.164 345.888 112.883 345.888 110.231C345.888 107.542 345.353 105.262 344.307 103.372C343.257 101.476 341.788 100.006 339.892 98.9561L339.888 98.9541C338.033 97.9089 335.807 97.376 333.19 97.376H327.86V123.141Z" stroke="white"/>
<path d="M333.031 90.0156C337.266 90.0156 340.972 90.8769 344.131 92.6182H344.132C347.32 94.3212 349.792 96.701 351.536 99.752H351.537C353.283 102.771 354.148 106.27 354.148 110.231C354.148 114.159 353.283 117.673 351.54 120.76L351.538 120.762C349.794 123.813 347.323 126.21 344.136 127.948L344.134 127.949C340.974 129.656 337.268 130.501 333.031 130.501H319.652V90.0156H333.031ZM327.86 123.141H333.19C335.807 123.141 338.033 122.608 339.888 121.562C341.786 120.477 343.256 118.989 344.307 117.092C345.354 115.164 345.888 112.883 345.888 110.231C345.888 107.542 345.353 105.262 344.307 103.372C343.257 101.476 341.788 100.006 339.892 98.9561L339.888 98.9541C338.033 97.9089 335.807 97.376 333.19 97.376H327.86V123.141Z" stroke="black" stroke-opacity="0.2"/>
<path d="M302.493 90.0156L302.609 90.3525L316.23 129.838L316.459 130.501H307.553L307.438 130.158L304.743 122.021H290.2L287.452 130.16L287.338 130.501H278.486L278.715 129.838L292.336 90.3525L292.452 90.0156H302.493ZM292.603 114.66H302.343L297.473 100.088L292.603 114.66Z" fill="white"/>
<path d="M302.493 90.0156L302.609 90.3525L316.23 129.838L316.459 130.501H307.553L307.438 130.158L304.743 122.021H290.2L287.452 130.16L287.338 130.501H278.486L278.715 129.838L292.336 90.3525L292.452 90.0156H302.493ZM292.603 114.66H302.343L297.473 100.088L292.603 114.66Z" stroke="white"/>
<path d="M302.493 90.0156L302.609 90.3525L316.23 129.838L316.459 130.501H307.553L307.438 130.158L304.743 122.021H290.2L287.452 130.16L287.338 130.501H278.486L278.715 129.838L292.336 90.3525L292.452 90.0156H302.493ZM292.603 114.66H302.343L297.473 100.088L292.603 114.66Z" stroke="black" stroke-opacity="0.2"/>
<path d="M277.636 90.0156V97.376H258.608V106.499H276.575V113.858H258.608V123.141H277.636V130.501H250.4V90.0156H277.636Z" fill="white"/>
<path d="M277.636 90.0156V97.376H258.608V106.499H276.575V113.858H258.608V123.141H277.636V130.501H250.4V90.0156H277.636Z" stroke="white"/>
<path d="M277.636 90.0156V97.376H258.608V106.499H276.575V113.858H258.608V123.141H277.636V130.501H250.4V90.0156H277.636Z" stroke="black" stroke-opacity="0.2"/>
<path d="M230.541 90.0156C233.284 90.0156 235.725 90.5207 237.851 91.5449C240.019 92.5374 241.721 94.0144 242.94 95.9717H242.941C244.168 97.905 244.769 100.247 244.769 102.971C244.769 105.772 244.094 108.186 242.723 110.19C241.496 112.031 239.858 113.428 237.821 114.384L246.61 129.752L247.038 130.501H237.722L237.578 130.245L229.564 115.926H223.568V130.501H215.36V90.0156H230.541ZM223.568 108.565H230.647C231.889 108.565 232.935 108.331 233.803 107.883C234.677 107.396 235.35 106.736 235.832 105.9C236.313 105.067 236.561 104.096 236.561 102.971C236.561 101.806 236.312 100.839 235.837 100.048L235.832 100.04C235.35 99.2055 234.68 98.5655 233.81 98.1143L233.803 98.1113L233.797 98.1074C232.931 97.6262 231.887 97.376 230.647 97.376H223.568V108.565Z" fill="white"/>
<path d="M230.541 90.0156C233.284 90.0156 235.725 90.5207 237.851 91.5449C240.019 92.5374 241.721 94.0144 242.94 95.9717H242.941C244.168 97.905 244.769 100.247 244.769 102.971C244.769 105.772 244.094 108.186 242.723 110.19C241.496 112.031 239.858 113.428 237.821 114.384L246.61 129.752L247.038 130.501H237.722L237.578 130.245L229.564 115.926H223.568V130.501H215.36V90.0156H230.541ZM223.568 108.565H230.647C231.889 108.565 232.935 108.331 233.803 107.883C234.677 107.396 235.35 106.736 235.832 105.9C236.313 105.067 236.561 104.096 236.561 102.971C236.561 101.806 236.312 100.839 235.837 100.048L235.832 100.04C235.35 99.2055 234.68 98.5655 233.81 98.1143L233.803 98.1113L233.797 98.1074C232.931 97.6262 231.887 97.376 230.647 97.376H223.568V108.565Z" stroke="white"/>
<path d="M230.541 90.0156C233.284 90.0156 235.725 90.5207 237.851 91.5449C240.019 92.5374 241.721 94.0144 242.94 95.9717H242.941C244.168 97.905 244.769 100.247 244.769 102.971C244.769 105.772 244.094 108.186 242.723 110.19C241.496 112.031 239.858 113.428 237.821 114.384L246.61 129.752L247.038 130.501H237.722L237.578 130.245L229.564 115.926H223.568V130.501H215.36V90.0156H230.541ZM223.568 108.565H230.647C231.889 108.565 232.935 108.331 233.803 107.883C234.677 107.396 235.35 106.736 235.832 105.9C236.313 105.067 236.561 104.096 236.561 102.971C236.561 101.806 236.312 100.839 235.837 100.048L235.832 100.04C235.35 99.2055 234.68 98.5655 233.81 98.1143L233.803 98.1113L233.797 98.1074C232.931 97.6262 231.887 97.376 230.647 97.376H223.568V108.565Z" stroke="black" stroke-opacity="0.2"/>
<path d="M193.366 89.3789C196.249 89.3789 198.845 89.8658 201.143 90.8506H201.142C203.457 91.8276 205.422 93.1346 207.027 94.7764H207.026C208.626 96.3767 209.781 98.151 210.479 100.099L210.633 100.527L210.22 100.72L203.754 103.741L203.264 103.97L203.074 103.464C202.368 101.581 201.176 100.034 199.487 98.8174L199.482 98.8135C197.814 97.5786 195.784 96.9512 193.366 96.9512C190.975 96.9512 188.876 97.5139 187.055 98.627L187.054 98.626C185.263 99.742 183.86 101.281 182.84 103.253C181.858 105.219 181.358 107.54 181.358 110.23C181.358 112.92 181.857 115.26 182.839 117.262C183.86 119.235 185.266 120.774 187.059 121.891H187.058C188.878 123.002 190.976 123.563 193.366 123.563C195.787 123.563 197.818 122.952 199.487 121.75C201.177 120.498 202.368 118.934 203.074 117.052L203.264 116.545L203.754 116.773L210.22 119.795L210.633 119.987L210.479 120.417C209.781 122.365 208.626 124.156 207.027 125.791L207.023 125.796L206.669 125.442L207.022 125.796C205.417 127.401 203.453 128.69 201.14 129.666L201.139 129.665C198.842 130.649 196.248 131.136 193.366 131.136C190.478 131.136 187.796 130.612 185.326 129.559L185.324 129.558C182.898 128.507 180.759 127.04 178.911 125.156L178.908 125.152C177.095 123.266 175.682 121.056 174.67 118.525C173.655 115.987 173.15 113.22 173.15 110.23C173.15 107.243 173.637 104.479 174.615 101.942L174.616 101.938C175.628 99.3719 177.042 97.1586 178.858 95.3057L179.209 94.957C180.861 93.3545 182.75 92.0851 184.873 91.1494L185.332 90.9531C187.8 89.9016 190.48 89.3789 193.366 89.3789Z" fill="white"/>
<path d="M193.366 89.3789C196.249 89.3789 198.845 89.8658 201.143 90.8506H201.142C203.457 91.8276 205.422 93.1346 207.027 94.7764H207.026C208.626 96.3767 209.781 98.151 210.479 100.099L210.633 100.527L210.22 100.72L203.754 103.741L203.264 103.97L203.074 103.464C202.368 101.581 201.176 100.034 199.487 98.8174L199.482 98.8135C197.814 97.5786 195.784 96.9512 193.366 96.9512C190.975 96.9512 188.876 97.5139 187.055 98.627L187.054 98.626C185.263 99.742 183.86 101.281 182.84 103.253C181.858 105.219 181.358 107.54 181.358 110.23C181.358 112.92 181.857 115.26 182.839 117.262C183.86 119.235 185.266 120.774 187.059 121.891H187.058C188.878 123.002 190.976 123.563 193.366 123.563C195.787 123.563 197.818 122.952 199.487 121.75C201.177 120.498 202.368 118.934 203.074 117.052L203.264 116.545L203.754 116.773L210.22 119.795L210.633 119.987L210.479 120.417C209.781 122.365 208.626 124.156 207.027 125.791L207.023 125.796L206.669 125.442L207.022 125.796C205.417 127.401 203.453 128.69 201.14 129.666L201.139 129.665C198.842 130.649 196.248 131.136 193.366 131.136C190.478 131.136 187.796 130.612 185.326 129.559L185.324 129.558C182.898 128.507 180.759 127.04 178.911 125.156L178.908 125.152C177.095 123.266 175.682 121.056 174.67 118.525C173.655 115.987 173.15 113.22 173.15 110.23C173.15 107.243 173.637 104.479 174.615 101.942L174.616 101.938C175.628 99.3719 177.042 97.1586 178.858 95.3057L179.209 94.957C180.861 93.3545 182.75 92.0851 184.873 91.1494L185.332 90.9531C187.8 89.9016 190.48 89.3789 193.366 89.3789Z" stroke="white"/>
<path d="M193.366 89.3789C196.249 89.3789 198.845 89.8658 201.143 90.8506H201.142C203.457 91.8276 205.422 93.1346 207.027 94.7764H207.026C208.626 96.3767 209.781 98.151 210.479 100.099L210.633 100.527L210.22 100.72L203.754 103.741L203.264 103.97L203.074 103.464C202.368 101.581 201.176 100.034 199.487 98.8174L199.482 98.8135C197.814 97.5786 195.784 96.9512 193.366 96.9512C190.975 96.9512 188.876 97.5139 187.055 98.627L187.054 98.626C185.263 99.742 183.86 101.281 182.84 103.253C181.858 105.219 181.358 107.54 181.358 110.23C181.358 112.92 181.857 115.26 182.839 117.262C183.86 119.235 185.266 120.774 187.059 121.891H187.058C188.878 123.002 190.976 123.563 193.366 123.563C195.787 123.563 197.818 122.952 199.487 121.75C201.177 120.498 202.368 118.934 203.074 117.052L203.264 116.545L203.754 116.773L210.22 119.795L210.633 119.987L210.479 120.417C209.781 122.365 208.626 124.156 207.027 125.791L207.023 125.796L206.669 125.442L207.022 125.796C205.417 127.401 203.453 128.69 201.14 129.666L201.139 129.665C198.842 130.649 196.248 131.136 193.366 131.136C190.478 131.136 187.796 130.612 185.326 129.559L185.324 129.558C182.898 128.507 180.759 127.04 178.911 125.156L178.908 125.152C177.095 123.266 175.682 121.056 174.67 118.525C173.655 115.987 173.15 113.22 173.15 110.23C173.15 107.243 173.637 104.479 174.615 101.942L174.616 101.938C175.628 99.3719 177.042 97.1586 178.858 95.3057L179.209 94.957C180.861 93.3545 182.75 92.0851 184.873 91.1494L185.332 90.9531C187.8 89.9016 190.48 89.3789 193.366 89.3789Z" stroke="black" stroke-opacity="0.2"/>
<defs>
<linearGradient id="paint0_linear_556_260" x1="28" y1="108.703" x2="140" y2="108.703" gradientUnits="userSpaceOnUse">
<stop stop-color="white"/>
<stop offset="1" stop-color="white"/>
</linearGradient>
<linearGradient id="paint1_linear_556_260" x1="114.435" y1="88.8262" x2="114.435" y2="132.652" gradientUnits="userSpaceOnUse">
<stop stop-color="white"/>
<stop offset="1" stop-color="white"/>
</linearGradient>
</defs>
</svg>
